<svg width="70" height="70" viewBox="0 0 70 70" fill="none" xmlns="http://www.w3.org/2000/svg">
<path d="M60 10H10V60H60V10Z" fill="black"/>
<g filter="url(#filter0_f_387_15)">
<path d="M50.885 60H19.115C14.08 60 10 55.92 10 50.885V19.115C10 14.08 14.08 10 19.115 10H50.885C55.92 10 60 14.08 60 19.115V50.885C60 55.92 55.92 60 50.885 60Z" fill="url(#paint0_linear_387_15)"/>
</g>
<path d="M50.885 60H19.115C14.08 60 10 55.92 10 50.885V19.115C10 14.08 14.08 10 19.115 10H50.885C55.92 10 60 14.08 60 19.115V50.885C60 55.92 55.92 60 50.885 60Z" fill="white"/>
<path d="M47.6004 49.0548L47.5254 49.1298H43.3004C42.8804 49.1298 42.4754 48.9648 42.1804 48.6648L35.2254 41.7148C35.1004 41.5898 34.8954 41.5898 34.7704 41.7148L27.5104 48.9748C27.4004 49.0848 27.2554 49.1448 27.1004 49.1448H22.4954L22.4004 49.0498L32.4804 38.9698L34.7704 36.6848C34.8954 36.5598 35.1004 36.5598 35.2254 36.6848L47.6004 49.0548Z" fill="black"/>
<path d="M33.3305 34.7847C33.4555 34.9097 33.4555 35.1147 33.3305 35.2397L31.0405 37.5247L20.9555 47.6097L20.8655 47.5197V42.9047C20.8655 42.7547 20.9255 42.6047 21.0355 42.4997L28.2955 35.2397C28.4205 35.1147 28.4205 34.9097 28.2955 34.7847L21.3205 27.8047C21.0255 27.5047 20.8555 27.1047 20.8555 26.6847V22.4997L20.9505 22.4047L33.3305 34.7847Z" fill="black"/>
<path d="M47.6115 20.9546L37.5165 31.0496L35.2315 33.3346C35.1065 33.4596 34.9015 33.4596 34.7765 33.3346L32.4865 31.0496L22.3965 20.9546L22.4865 20.8646H26.6815C27.1015 20.8646 27.5065 21.0296 27.8015 21.3296L34.7765 28.3046C34.9015 28.4296 35.1065 28.4296 35.2315 28.3046L42.5165 21.0196C42.6265 20.9096 42.7715 20.8496 42.9265 20.8496H47.5165L47.6115 20.9546Z" fill="black"/>
<path d="M49.1458 43.3349V47.5099L49.0458 47.6099L36.6758 35.2399C36.5508 35.1149 36.5508 34.9099 36.6758 34.7849L38.9608 32.4999L49.0558 22.3999L49.1308 22.4749V27.1199C49.1308 27.2699 49.0708 27.4199 48.9608 27.5249L41.7008 34.7849C41.5758 34.9099 41.5758 35.1149 41.7008 35.2399L48.6808 42.2199C48.9808 42.5149 49.1458 42.9199 49.1458 43.3349Z" fill="black"/>
<defs>
<filter id="filter0_f_387_15" x="0" y="0" width="70" height="70" filterUnits="userSpaceOnUse" color-interpolation-filters="sRGB">
<feFlood flood-opacity="0" result="BackgroundImageFix"/>
<feBlend mode="normal" in="SourceGraphic" in2="BackgroundImageFix" result="shape"/>
<feGaussianBlur stdDeviation="5" result="effect1_foregroundBlur_387_15"/>
</filter>
<linearGradient id="paint0_linear_387_15" x1="57.0811" y1="-11538.1" x2="7.0685" y2="-11538.1" gradientUnits="userSpaceOnUse">
<stop stop-color="#6DDBAA"/>
<stop offset="0.111111" stop-color="#8781D6"/>
<stop offset="0.222222" stop-color="#CF98B9"/>
<stop offset="0.333333" stop-color="#F7DFA2"/>
<stop offset="0.444444" stop-color="#BADAE2"/>
<stop offset="0.555556" stop-color="#6DDBAA"/>
<stop offset="0.666667" stop-color="#8781D6"/>
<stop offset="0.777778" stop-color="#CF98B9"/>
<stop offset="0.888889" stop-color="#F7DFA2"/>
<stop offset="1" stop-color="#BADAE2"/>
</linearGradient>
</defs>
</svg>
