<svg width="1280" height="500" viewBox="0 0 1280 500" fill="none" xmlns="http://www.w3.org/2000/svg">
<g clip-path="url(#clip0_398_46)">
<path fill-rule="evenodd" clip-rule="evenodd" d="M662.67 372.283C721.128 386.734 763.555 411.123 833.774 416.287C902.476 421.342 1002.71 421.119 1036.65 399.792C1075.13 375.606 1009.3 346.183 987.605 319.601C974.328 303.332 912.731 288.437 933.27 273.103C984.286 235.02 1165.58 222.474 1173.84 180.573C1179.43 152.279 1039.18 147.297 959.26 141.319C888.345 136.01 812.047 158.102 745.002 148.488C656.747 135.831 634.236 79.3808 538.862 81.0356C452.381 82.5364 461.491 135.884 393.73 154.582C329.947 172.186 219.752 162.157 166.904 183.681C115.907 204.453 80.0748 241.398 126.508 263.422C192.542 294.745 381.385 274.318 431.224 309.058C471.581 337.19 243.403 371.977 311.796 392.578C384.844 414.581 478.576 357.585 573.993 352.065C609.265 350.024 633.546 365.084 662.67 372.283Z" fill="url(#paint0_linear_398_46)"/>
<path d="M1266 0H14C6.26801 0 0 6.26801 0 14V486C0 493.732 6.26801 500 14 500H1266C1273.73 500 1280 493.732 1280 486V14C1280 6.26801 1273.73 0 1266 0Z" fill="#373737" fill-opacity="0.4"/>
</g>
<defs>
<linearGradient id="paint0_linear_398_46" x1="102.708" y1="265.875" x2="1006.25" y2="665.033" gradientUnits="userSpaceOnUse">
<stop stop-color="#EAF110"/>
<stop offset="0.5" stop-color="#31EE02"/>
<stop offset="1" stop-color="#F553F9"/>
</linearGradient>
<clipPath id="clip0_398_46">
<rect width="1280" height="500" fill="white"/>
</clipPath>
</defs>
</svg>
