<svg width="223" height="223" viewBox="0 0 223 223" fill="none" xmlns="http://www.w3.org/2000/svg">
<g filter="url(#filter0_d_398_37)">
<path d="M179 111.5C179 74.2208 148.779 44 111.5 44C74.2208 44 44 74.2208 44 111.5C44 148.779 74.2208 179 111.5 179C148.779 179 179 148.779 179 111.5Z" fill="white" fill-opacity="0.01"/>
<path d="M161.5 111.5C161.5 83.8858 139.114 61.5 111.5 61.5C83.8858 61.5 61.5 83.8858 61.5 111.5C61.5 139.114 83.8858 161.5 111.5 161.5C139.114 161.5 161.5 139.114 161.5 111.5Z" fill="#65FE65"/>
<mask id="mask0_398_37" style="mask-type:luminance" maskUnits="userSpaceOnUse" x="88" y="88" width="48" height="48">
<path d="M88 88H136V136H88V88Z" fill="white"/>
</mask>
<g mask="url(#mask0_398_37)">
<path d="M122.001 102L102.001 122" stroke="black" stroke-width="4" stroke-linecap="round" stroke-linejoin="round"/>
<path d="M104.001 102H122.001V120" stroke="black" stroke-width="4" stroke-linecap="round" stroke-linejoin="round"/>
</g>
</g>
<defs>
<filter id="filter0_d_398_37" x="0" y="0" width="223" height="223" filterUnits="userSpaceOnUse" color-interpolation-filters="sRGB">
<feFlood flood-opacity="0" result="BackgroundImageFix"/>
<feColorMatrix in="SourceAlpha" type="matrix" values="0 0 0 0 0 0 0 0 0 0 0 0 0 0 0 0 0 0 127 0" result="hardAlpha"/>
<feOffset/>
<feGaussianBlur stdDeviation="22"/>
<feComposite in2="hardAlpha" operator="out"/>
<feColorMatrix type="matrix" values="0 0 0 0 0.245417 0 0 0 0 0.475 0 0 0 0 0.25307 0 0 0 0.25 0"/>
<feBlend mode="normal" in2="BackgroundImageFix" result="effect1_dropShadow_398_37"/>
<feBlend mode="normal" in="SourceGraphic" in2="effect1_dropShadow_398_37" result="shape"/>
</filter>
</defs>
</svg>
