<svg width="1400" height="645" viewBox="0 0 1400 645" fill="none" xmlns="http://www.w3.org/2000/svg">
<g clip-path="url(#clip0_387_526)">
<g clip-path="url(#clip1_387_526)">
<g clip-path="url(#clip2_387_526)">
<path d="M624.814 85.42V74.511H628.627C629.387 74.511 630.014 74.6423 630.508 74.9051C631.001 75.1644 631.369 75.5141 631.61 75.9545C631.852 76.3913 631.973 76.876 631.973 77.4087C631.973 77.8774 631.889 78.2645 631.722 78.5699C631.559 78.8753 631.342 79.1168 631.072 79.2943C630.806 79.4719 630.517 79.6033 630.204 79.6885V79.795C630.538 79.8164 630.874 79.9335 631.211 80.1466C631.548 80.3597 631.831 80.6651 632.058 81.0628C632.285 81.4605 632.399 81.947 632.399 82.5223C632.399 83.0692 632.274 83.561 632.026 83.9978C631.777 84.4346 631.385 84.7808 630.849 85.0365C630.312 85.2922 629.615 85.42 628.755 85.42H624.814ZM626.135 84.2482H628.755C629.618 84.2482 630.231 84.0813 630.593 83.7475C630.959 83.4101 631.142 83.0017 631.142 82.5223C631.142 82.153 631.048 81.8121 630.859 81.4996C630.671 81.1835 630.403 80.9314 630.055 80.7432C629.707 80.5514 629.295 80.4556 628.819 80.4556H626.135V84.2482ZM626.135 79.305H628.585C628.983 79.305 629.341 79.2269 629.661 79.0706C629.984 78.9144 630.24 78.6942 630.428 78.4101C630.62 78.126 630.715 77.7922 630.715 77.4087C630.715 76.9293 630.549 76.5227 630.215 76.1889C629.881 75.8515 629.352 75.6828 628.627 75.6828H626.135V79.305ZM636.907 85.6118C636.388 85.6118 635.918 85.5141 635.495 85.3188C635.072 85.12 634.737 84.8341 634.488 84.4612C634.24 84.0848 634.115 83.6303 634.115 83.0976C634.115 82.6289 634.208 82.2489 634.392 81.9577C634.577 81.6629 634.824 81.4321 635.133 81.2652C635.442 81.0983 635.783 80.974 636.156 80.8923C636.532 80.8071 636.91 80.7396 637.29 80.6899C637.787 80.626 638.19 80.5781 638.499 80.5461C638.812 80.5106 639.039 80.452 639.181 80.3703C639.327 80.2887 639.399 80.1466 639.399 79.9442V79.9016C639.399 79.376 639.256 78.9676 638.968 78.6764C638.684 78.3852 638.252 78.2396 637.674 78.2396C637.073 78.2396 636.603 78.371 636.262 78.6338C635.921 78.8966 635.681 79.1771 635.543 79.4754L634.35 79.0493C634.563 78.5521 634.847 78.1651 635.202 77.8881C635.561 77.6075 635.951 77.4122 636.374 77.3021C636.8 77.1885 637.219 77.1317 637.631 77.1317C637.894 77.1317 638.196 77.1637 638.537 77.2276C638.881 77.2879 639.213 77.414 639.533 77.6058C639.856 77.7975 640.124 78.0869 640.337 78.474C640.55 78.8611 640.657 79.3796 640.657 80.0294V85.42H639.399V84.3121H639.336C639.25 84.4896 639.108 84.6796 638.909 84.882C638.711 85.0845 638.446 85.2567 638.116 85.3987C637.785 85.5408 637.382 85.6118 636.907 85.6118ZM637.098 84.4825C637.595 84.4825 638.015 84.3849 638.355 84.1896C638.7 83.9943 638.959 83.7421 639.133 83.4332C639.311 83.1242 639.399 82.7993 639.399 82.4584V81.3078C639.346 81.3717 639.229 81.4303 639.048 81.4836C638.87 81.5333 638.664 81.5777 638.43 81.6168C638.199 81.6523 637.974 81.6842 637.754 81.7127C637.537 81.7375 637.361 81.7588 637.226 81.7766C636.899 81.8192 636.594 81.8884 636.31 81.9843C636.029 82.0766 635.802 82.2169 635.628 82.4051C635.458 82.5898 635.372 82.8419 635.372 83.1615C635.372 83.5983 635.534 83.9286 635.857 84.1523C636.184 84.3725 636.598 84.4825 637.098 84.4825ZM646.375 85.5905C645.608 85.5905 644.947 85.4094 644.393 85.0472C643.839 84.685 643.413 84.186 643.115 83.5504C642.817 82.9147 642.668 82.1885 642.668 81.3717C642.668 80.5408 642.82 79.8075 643.126 79.1718C643.435 78.5326 643.864 78.0337 644.415 77.675C644.969 77.3128 645.615 77.1317 646.354 77.1317C646.929 77.1317 647.447 77.2382 647.909 77.4513C648.371 77.6644 648.749 77.9627 649.044 78.3462C649.338 78.7297 649.521 79.1771 649.592 79.6885H648.335C648.239 79.3156 648.026 78.9854 647.696 78.6977C647.369 78.4065 646.929 78.261 646.375 78.261C645.885 78.261 645.455 78.3888 645.086 78.6445C644.72 78.8966 644.434 79.2535 644.228 79.7151C644.026 80.1732 643.925 80.7112 643.925 81.3291C643.925 81.9612 644.024 82.5117 644.223 82.9804C644.425 83.4492 644.709 83.8132 645.075 84.0724C645.445 84.3316 645.878 84.4612 646.375 84.4612C646.702 84.4612 646.998 84.4044 647.264 84.2908C647.531 84.1771 647.756 84.0138 647.941 83.8007C648.126 83.5877 648.257 83.332 648.335 83.0337H649.592C649.521 83.5166 649.345 83.9516 649.065 84.3387C648.788 84.7222 648.42 85.0276 647.962 85.2549C647.508 85.4786 646.979 85.5905 646.375 85.5905ZM652.702 82.4371L652.681 80.8817H652.936L656.516 77.2382H658.071L654.257 81.0948H654.151L652.702 82.4371ZM651.53 85.42V74.511H652.787V85.42H651.53ZM656.729 85.42L653.533 81.3717L654.428 80.4982L658.327 85.42H656.729ZM662.883 85.5905C662.094 85.5905 661.414 85.4165 660.842 85.0685C660.274 84.7169 659.836 84.2269 659.527 83.5983C659.221 82.9662 659.069 82.2311 659.069 81.3931C659.069 80.555 659.221 79.8164 659.527 79.1771C659.836 78.5344 660.265 78.0337 660.816 77.675C661.37 77.3128 662.016 77.1317 662.755 77.1317C663.181 77.1317 663.602 77.2027 664.017 77.3448C664.433 77.4868 664.811 77.7176 665.152 78.0372C665.493 78.3533 665.764 78.7723 665.967 79.2943C666.169 79.8164 666.27 80.4591 666.27 81.2226V81.7553H659.964V80.6686H664.992C664.992 80.207 664.9 79.795 664.715 79.4328C664.534 79.0706 664.275 78.7847 663.937 78.5752C663.604 78.3657 663.209 78.261 662.755 78.261C662.254 78.261 661.821 78.3852 661.455 78.6338C661.093 78.8789 660.814 79.1985 660.619 79.5926C660.423 79.9868 660.326 80.4094 660.326 80.8604V81.5848C660.326 82.2027 660.432 82.7265 660.645 83.1562C660.862 83.5823 661.162 83.9073 661.546 84.131C661.929 84.3512 662.375 84.4612 662.883 84.4612C663.213 84.4612 663.511 84.4151 663.778 84.3227C664.047 84.2269 664.28 84.0848 664.475 83.8966C664.671 83.7048 664.822 83.4669 664.928 83.1828L666.143 83.5237C666.015 83.9357 665.8 84.2979 665.498 84.6104C665.196 84.9193 664.823 85.1608 664.379 85.3348C663.936 85.5053 663.437 85.5905 662.883 85.5905ZM671.372 85.5905C670.69 85.5905 670.088 85.4183 669.566 85.0738C669.044 84.7258 668.636 84.2357 668.341 83.6036C668.047 82.968 667.899 82.2169 667.899 81.3504C667.899 80.4911 668.047 79.7453 668.341 79.1132C668.636 78.4811 669.046 77.9928 669.572 77.6484C670.097 77.3039 670.705 77.1317 671.393 77.1317C671.926 77.1317 672.347 77.2205 672.656 77.398C672.968 77.572 673.206 77.7709 673.37 77.9946C673.537 78.2148 673.666 78.3959 673.759 78.5379H673.865V74.511H675.122V85.42H673.908V84.1629H673.759C673.666 84.3121 673.535 84.5003 673.364 84.7276C673.194 84.9513 672.951 85.1519 672.635 85.3295C672.319 85.5035 671.898 85.5905 671.372 85.5905ZM671.543 84.4612C672.047 84.4612 672.473 84.3298 672.821 84.0671C673.169 83.8007 673.434 83.4332 673.615 82.9644C673.796 82.4921 673.886 81.947 673.886 81.3291C673.886 80.7183 673.798 80.1839 673.62 79.7258C673.442 79.2641 673.18 78.9055 672.832 78.6498C672.484 78.3906 672.054 78.261 671.543 78.261C671.01 78.261 670.566 78.3977 670.211 78.6711C669.859 78.941 669.595 79.3085 669.417 79.7737C669.243 80.2354 669.156 80.7539 669.156 81.3291C669.156 81.9115 669.245 82.4406 669.423 82.9165C669.604 83.3888 669.87 83.7652 670.222 84.0458C670.577 84.3227 671.017 84.4612 671.543 84.4612ZM682.188 85.42V74.511H683.445V78.5379H683.552C683.644 78.3959 683.772 78.2148 683.935 77.9946C684.102 77.7709 684.34 77.572 684.649 77.398C684.962 77.2205 685.384 77.1317 685.917 77.1317C686.606 77.1317 687.213 77.3039 687.739 77.6484C688.264 77.9928 688.674 78.4811 688.969 79.1132C689.264 79.7453 689.411 80.4911 689.411 81.3504C689.411 82.2169 689.264 82.968 688.969 83.6036C688.674 84.2357 688.266 84.7258 687.744 85.0738C687.222 85.4183 686.62 85.5905 685.938 85.5905C685.413 85.5905 684.992 85.5035 684.676 85.3295C684.36 85.1519 684.117 84.9513 683.946 84.7276C683.776 84.5003 683.644 84.3121 683.552 84.1629H683.403V85.42H682.188ZM683.424 81.3291C683.424 81.947 683.515 82.4921 683.696 82.9644C683.877 83.4332 684.141 83.8007 684.489 84.0671C684.837 84.3298 685.264 84.4612 685.768 84.4612C686.293 84.4612 686.732 84.3227 687.084 84.0458C687.439 83.7652 687.705 83.3888 687.883 82.9165C688.064 82.4406 688.154 81.9115 688.154 81.3291C688.154 80.7539 688.065 80.2354 687.888 79.7737C687.714 79.3085 687.449 78.941 687.094 78.6711C686.743 78.3977 686.301 78.261 685.768 78.261C685.256 78.261 684.827 78.3906 684.479 78.6498C684.131 78.9055 683.868 79.2641 683.69 79.7258C683.513 80.1839 683.424 80.7183 683.424 81.3291ZM691.951 88.4882C691.738 88.4882 691.548 88.4705 691.381 88.435C691.214 88.403 691.099 88.371 691.035 88.3391L691.354 87.2311C691.66 87.3092 691.93 87.3377 692.164 87.3164C692.398 87.295 692.606 87.1903 692.787 87.0021C692.972 86.8174 693.141 86.5173 693.293 86.1019L693.528 85.4627L690.502 77.2382H691.866L694.124 83.7581H694.209L696.468 77.2382H697.832L694.359 86.6132C694.202 87.0358 694.009 87.3856 693.778 87.6626C693.547 87.9431 693.279 88.1509 692.974 88.2858C692.672 88.4208 692.331 88.4882 691.951 88.4882ZM703.143 74.511H704.655L707.681 79.6033H707.809L710.834 74.511H712.347L708.405 80.9243V85.42H707.084V80.9243L703.143 74.511ZM727.253 77.92H725.932C725.854 77.5401 725.717 77.2063 725.522 76.9186C725.33 76.631 725.096 76.3895 724.819 76.1942C724.545 75.9953 724.241 75.8462 723.908 75.7467C723.574 75.6473 723.226 75.5976 722.864 75.5976C722.203 75.5976 721.605 75.7645 721.069 76.0983C720.536 76.4321 720.112 76.924 719.795 77.5738C719.483 78.2237 719.327 79.0209 719.327 79.9655C719.327 80.9101 719.483 81.7073 719.795 82.3572C720.112 83.007 720.536 83.4989 721.069 83.8327C721.605 84.1665 722.203 84.3334 722.864 84.3334C723.226 84.3334 723.574 84.2837 723.908 84.1842C724.241 84.0848 724.545 83.9374 724.819 83.7421C725.096 83.5433 725.33 83.3 725.522 83.0124C725.717 82.7212 725.854 82.3874 725.932 82.011H727.253C727.153 82.5685 726.972 83.0674 726.71 83.5078C726.447 83.9481 726.12 84.3227 725.729 84.6317C725.339 84.9371 724.9 85.1697 724.414 85.3295C723.931 85.4893 723.414 85.5692 722.864 85.5692C721.933 85.5692 721.106 85.3419 720.381 84.8874C719.657 84.4328 719.087 83.7865 718.672 82.9485C718.256 82.1104 718.048 81.1161 718.048 79.9655C718.048 78.8149 718.256 77.8206 718.672 76.9825C719.087 76.1445 719.657 75.4982 720.381 75.0436C721.106 74.5891 721.933 74.3618 722.864 74.3618C723.414 74.3618 723.931 74.4417 724.414 74.6015C724.9 74.7613 725.339 74.9957 725.729 75.3046C726.12 75.61 726.447 75.9829 726.71 76.4232C726.972 76.86 727.153 77.359 727.253 77.92ZM732.641 85.5905C731.902 85.5905 731.254 85.4147 730.697 85.0632C730.143 84.7116 729.709 84.2198 729.397 83.5877C729.088 82.9556 728.934 82.2169 728.934 81.3717C728.934 80.5195 729.088 79.7755 729.397 79.1399C729.709 78.5042 730.143 78.0106 730.697 77.659C731.254 77.3075 731.902 77.1317 732.641 77.1317C733.38 77.1317 734.026 77.3075 734.58 77.659C735.137 78.0106 735.571 78.5042 735.88 79.1399C736.192 79.7755 736.348 80.5195 736.348 81.3717C736.348 82.2169 736.192 82.9556 735.88 83.5877C735.571 84.2198 735.137 84.7116 734.58 85.0632C734.026 85.4147 733.38 85.5905 732.641 85.5905ZM732.641 84.4612C733.202 84.4612 733.664 84.3174 734.026 84.0298C734.388 83.7421 734.656 83.3639 734.83 82.8952C735.004 82.4264 735.091 81.9186 735.091 81.3717C735.091 80.8249 735.004 80.3153 734.83 79.843C734.656 79.3707 734.388 78.9889 734.026 78.6977C733.664 78.4065 733.202 78.261 732.641 78.261C732.08 78.261 731.618 78.4065 731.256 78.6977C730.894 78.9889 730.626 79.3707 730.452 79.843C730.278 80.3153 730.191 80.8249 730.191 81.3717C730.191 81.9186 730.278 82.4264 730.452 82.8952C730.626 83.3639 730.894 83.7421 731.256 84.0298C731.618 84.3174 732.08 84.4612 732.641 84.4612ZM738.367 85.42V77.2382H739.582V78.5166H739.688C739.859 78.0798 740.134 77.7407 740.514 77.4992C740.894 77.2542 741.35 77.1317 741.883 77.1317C742.423 77.1317 742.872 77.2542 743.231 77.4992C743.593 77.7407 743.875 78.0798 744.077 78.5166H744.163C744.372 78.094 744.687 77.7585 745.106 77.5099C745.525 77.2578 746.027 77.1317 746.613 77.1317C747.345 77.1317 747.943 77.3607 748.408 77.8188C748.873 78.2734 749.106 78.9818 749.106 79.9442V85.42H747.849V79.9442C747.849 79.3405 747.684 78.909 747.353 78.6498C747.023 78.3906 746.634 78.261 746.187 78.261C745.612 78.261 745.166 78.435 744.85 78.783C744.534 79.1274 744.376 79.5642 744.376 80.0933V85.42H743.097V79.8164C743.097 79.3512 742.946 78.9765 742.645 78.6924C742.343 78.4048 741.954 78.261 741.478 78.261C741.151 78.261 740.846 78.348 740.562 78.522C740.281 78.696 740.054 78.9374 739.88 79.2464C739.71 79.5518 739.624 79.9051 739.624 80.3064V85.42H738.367ZM751.675 85.42V74.511H752.932V78.5379H753.038C753.131 78.3959 753.259 78.2148 753.422 77.9946C753.589 77.7709 753.827 77.572 754.136 77.398C754.448 77.2205 754.871 77.1317 755.404 77.1317C756.092 77.1317 756.7 77.3039 757.225 77.6484C757.751 77.9928 758.161 78.4811 758.456 79.1132C758.75 79.7453 758.898 80.4911 758.898 81.3504C758.898 82.2169 758.75 82.968 758.456 83.6036C758.161 84.2357 757.753 84.7258 757.231 85.0738C756.709 85.4183 756.107 85.5905 755.425 85.5905C754.899 85.5905 754.478 85.5035 754.162 85.3295C753.846 85.1519 753.603 84.9513 753.433 84.7276C753.262 84.5003 753.131 84.3121 753.038 84.1629H752.889V85.42H751.675ZM752.911 81.3291C752.911 81.947 753.001 82.4921 753.182 82.9644C753.363 83.4332 753.628 83.8007 753.976 84.0671C754.324 84.3298 754.75 84.4612 755.254 84.4612C755.78 84.4612 756.219 84.3227 756.57 84.0458C756.925 83.7652 757.192 83.3888 757.369 82.9165C757.55 82.4406 757.641 81.9115 757.641 81.3291C757.641 80.7539 757.552 80.2354 757.374 79.7737C757.2 79.3085 756.936 78.941 756.581 78.6711C756.229 78.3977 755.787 78.261 755.254 78.261C754.743 78.261 754.313 78.3906 753.965 78.6498C753.617 78.9055 753.355 79.2641 753.177 79.7258C752.999 80.1839 752.911 80.7183 752.911 81.3291ZM760.921 85.42V77.2382H762.178V85.42H760.921ZM761.56 75.8746C761.315 75.8746 761.104 75.7911 760.926 75.6242C760.752 75.4573 760.665 75.2567 760.665 75.0223C760.665 74.7879 760.752 74.5873 760.926 74.4204C761.104 74.2535 761.315 74.17 761.56 74.17C761.805 74.17 762.015 74.2535 762.189 74.4204C762.366 74.5873 762.455 74.7879 762.455 75.0223C762.455 75.2567 762.366 75.4573 762.189 75.6242C762.015 75.7911 761.805 75.8746 761.56 75.8746ZM765.837 80.4982V85.42H764.58V77.2382H765.795V78.5166H765.901C766.093 78.1012 766.384 77.7673 766.775 77.5152C767.166 77.2595 767.67 77.1317 768.288 77.1317C768.842 77.1317 769.326 77.2453 769.742 77.4726C770.157 77.6963 770.481 78.0372 770.711 78.4953C770.942 78.9499 771.058 79.5252 771.058 80.2212V85.42H769.801V80.3064C769.801 79.6637 769.634 79.1629 769.3 78.8043C768.966 78.4421 768.508 78.261 767.926 78.261C767.524 78.261 767.166 78.348 766.85 78.522C766.537 78.696 766.29 78.9499 766.109 79.2837C765.928 79.6175 765.837 80.0223 765.837 80.4982ZM775.862 85.6118C775.344 85.6118 774.873 85.5141 774.451 85.3188C774.028 85.12 773.693 84.8341 773.444 84.4612C773.196 84.0848 773.071 83.6303 773.071 83.0976C773.071 82.6289 773.164 82.2489 773.348 81.9577C773.533 81.6629 773.78 81.4321 774.089 81.2652C774.398 81.0983 774.739 80.974 775.111 80.8923C775.488 80.8071 775.866 80.7396 776.246 80.6899C776.743 80.626 777.146 80.5781 777.455 80.5461C777.768 80.5106 777.995 80.452 778.137 80.3703C778.283 80.2887 778.355 80.1466 778.355 79.9442V79.9016C778.355 79.376 778.212 78.9676 777.924 78.6764C777.64 78.3852 777.208 78.2396 776.629 78.2396C776.029 78.2396 775.559 78.371 775.218 78.6338C774.877 78.8966 774.637 79.1771 774.499 79.4754L773.306 79.0493C773.519 78.5521 773.803 78.1651 774.158 77.8881C774.517 77.6075 774.907 77.4122 775.33 77.3021C775.756 77.1885 776.175 77.1317 776.587 77.1317C776.85 77.1317 777.152 77.1637 777.492 77.2276C777.837 77.2879 778.169 77.414 778.489 77.6058C778.812 77.7975 779.08 78.0869 779.293 78.474C779.506 78.8611 779.612 79.3796 779.612 80.0294V85.42H778.355V84.3121H778.291C778.206 84.4896 778.064 84.6796 777.865 84.882C777.666 85.0845 777.402 85.2567 777.072 85.3987C776.741 85.5408 776.338 85.6118 775.862 85.6118ZM776.054 84.4825C776.551 84.4825 776.97 84.3849 777.311 84.1896C777.656 83.9943 777.915 83.7421 778.089 83.4332C778.267 83.1242 778.355 82.7993 778.355 82.4584V81.3078C778.302 81.3717 778.185 81.4303 778.004 81.4836C777.826 81.5333 777.62 81.5777 777.386 81.6168C777.155 81.6523 776.93 81.6842 776.709 81.7127C776.493 81.7375 776.317 81.7588 776.182 81.7766C775.855 81.8192 775.55 81.8884 775.266 81.9843C774.985 82.0766 774.758 82.2169 774.584 82.4051C774.414 82.5898 774.328 82.8419 774.328 83.1615C774.328 83.5983 774.49 83.9286 774.813 84.1523C775.14 84.3725 775.553 84.4825 776.054 84.4825ZM785.565 77.2382V78.3036H781.325V77.2382H785.565ZM782.561 75.278H783.818V83.0763C783.818 83.4314 783.869 83.6977 783.972 83.8753C784.079 84.0493 784.214 84.1665 784.377 84.2269C784.544 84.2837 784.72 84.3121 784.905 84.3121C785.043 84.3121 785.157 84.305 785.246 84.2908C785.334 84.273 785.405 84.2588 785.459 84.2482L785.714 85.3774C785.629 85.4094 785.51 85.4414 785.357 85.4733C785.205 85.5088 785.011 85.5266 784.777 85.5266C784.422 85.5266 784.074 85.4502 783.733 85.2975C783.395 85.1448 783.115 84.9122 782.891 84.5997C782.671 84.2872 782.561 83.8931 782.561 83.4172V75.278ZM790.792 85.5905C790.053 85.5905 789.405 85.4147 788.848 85.0632C788.294 84.7116 787.861 84.2198 787.548 83.5877C787.239 82.9556 787.085 82.2169 787.085 81.3717C787.085 80.5195 787.239 79.7755 787.548 79.1399C787.861 78.5042 788.294 78.0106 788.848 77.659C789.405 77.3075 790.053 77.1317 790.792 77.1317C791.531 77.1317 792.177 77.3075 792.731 77.659C793.289 78.0106 793.722 78.5042 794.031 79.1399C794.343 79.7755 794.499 80.5195 794.499 81.3717C794.499 82.2169 794.343 82.9556 794.031 83.5877C793.722 84.2198 793.289 84.7116 792.731 85.0632C792.177 85.4147 791.531 85.5905 790.792 85.5905ZM790.792 84.4612C791.353 84.4612 791.815 84.3174 792.177 84.0298C792.539 83.7421 792.807 83.3639 792.981 82.8952C793.155 82.4264 793.242 81.9186 793.242 81.3717C793.242 80.8249 793.155 80.3153 792.981 79.843C792.807 79.3707 792.539 78.9889 792.177 78.6977C791.815 78.4065 791.353 78.261 790.792 78.261C790.231 78.261 789.769 78.4065 789.407 78.6977C789.045 78.9889 788.777 79.3707 788.603 79.843C788.429 80.3153 788.342 80.8249 788.342 81.3717C788.342 81.9186 788.429 82.4264 788.603 82.8952C788.777 83.3639 789.045 83.7421 789.407 84.0298C789.769 84.3174 790.231 84.4612 790.792 84.4612ZM796.518 85.42V77.2382H797.733V78.474H797.818C797.967 78.0692 798.237 77.7407 798.628 77.4886C799.018 77.2364 799.459 77.1104 799.949 77.1104C800.041 77.1104 800.157 77.1122 800.295 77.1157C800.434 77.1193 800.538 77.1246 800.609 77.1317V78.4101C800.567 78.3994 800.469 78.3835 800.316 78.3622C800.167 78.3373 800.009 78.3249 799.842 78.3249C799.445 78.3249 799.089 78.4083 798.777 78.5752C798.468 78.7386 798.223 78.9659 798.042 79.257C797.864 79.5447 797.776 79.8732 797.776 80.2425V85.42H796.518Z" fill="#696A72"/>
</g>
</g>
<path d="M330.723 202.949H320.098C319.795 201.206 319.237 199.663 318.422 198.318C317.608 196.955 316.595 195.799 315.382 194.852C314.17 193.905 312.788 193.195 311.235 192.722C309.701 192.229 308.043 191.983 306.263 191.983C303.1 191.983 300.297 192.778 297.854 194.369C295.411 195.941 293.498 198.252 292.115 201.301C290.733 204.331 290.042 208.034 290.042 212.409C290.042 216.86 290.733 220.61 292.115 223.659C293.517 226.689 295.43 228.981 297.854 230.534C300.297 232.068 303.091 232.835 306.235 232.835C307.977 232.835 309.606 232.608 311.121 232.153C312.655 231.68 314.028 230.989 315.24 230.08C316.471 229.17 317.504 228.053 318.337 226.727C319.189 225.402 319.776 223.886 320.098 222.182L330.723 222.239C330.326 225.004 329.464 227.598 328.138 230.023C326.831 232.447 325.117 234.587 322.996 236.443C320.875 238.28 318.394 239.72 315.553 240.761C312.712 241.784 309.559 242.295 306.093 242.295C300.979 242.295 296.415 241.112 292.4 238.744C288.384 236.377 285.221 232.958 282.911 228.489C280.6 224.019 279.445 218.659 279.445 212.409C279.445 206.14 280.61 200.78 282.939 196.33C285.269 191.86 288.441 188.441 292.456 186.074C296.471 183.706 301.017 182.523 306.093 182.523C309.331 182.523 312.343 182.977 315.127 183.886C317.911 184.795 320.392 186.131 322.57 187.892C324.748 189.634 326.538 191.775 327.939 194.312C329.36 196.831 330.288 199.71 330.723 202.949ZM366.233 223.148V197.864H376.517V241.5H366.546V233.744H366.091C365.106 236.187 363.487 238.186 361.233 239.739C358.998 241.292 356.243 242.068 352.966 242.068C350.106 242.068 347.578 241.434 345.381 240.165C343.203 238.877 341.498 237.011 340.267 234.568C339.036 232.106 338.421 229.133 338.421 225.648V197.864H348.705V224.057C348.705 226.822 349.462 229.019 350.978 230.648C352.493 232.277 354.481 233.091 356.944 233.091C358.459 233.091 359.926 232.722 361.347 231.983C362.767 231.244 363.932 230.146 364.841 228.688C365.769 227.21 366.233 225.364 366.233 223.148ZM420.081 209.398L410.706 210.42C410.441 209.473 409.977 208.583 409.314 207.75C408.67 206.917 407.799 206.244 406.701 205.733C405.602 205.222 404.257 204.966 402.667 204.966C400.526 204.966 398.727 205.43 397.269 206.358C395.829 207.286 395.119 208.489 395.138 209.966C395.119 211.235 395.583 212.267 396.53 213.062C397.496 213.858 399.087 214.511 401.303 215.023L408.746 216.614C412.875 217.504 415.943 218.915 417.951 220.847C419.977 222.778 421 225.307 421.019 228.432C421 231.178 420.195 233.602 418.604 235.705C417.032 237.788 414.845 239.417 412.042 240.591C409.239 241.765 406.019 242.352 402.382 242.352C397.042 242.352 392.742 241.235 389.485 239C386.227 236.746 384.286 233.612 383.661 229.597L393.689 228.631C394.144 230.6 395.11 232.087 396.587 233.091C398.064 234.095 399.987 234.597 402.354 234.597C404.797 234.597 406.757 234.095 408.235 233.091C409.731 232.087 410.479 230.847 410.479 229.369C410.479 228.119 409.996 227.087 409.03 226.273C408.083 225.458 406.606 224.833 404.598 224.398L397.155 222.835C392.97 221.964 389.873 220.496 387.865 218.432C385.858 216.348 384.864 213.716 384.882 210.534C384.864 207.845 385.593 205.515 387.07 203.545C388.566 201.557 390.64 200.023 393.292 198.943C395.962 197.845 399.04 197.295 402.525 197.295C407.638 197.295 411.663 198.384 414.598 200.562C417.553 202.741 419.381 205.686 420.081 209.398ZM449.789 197.864V205.818H424.703V197.864H449.789ZM430.897 187.409H441.181V228.375C441.181 229.758 441.389 230.818 441.806 231.557C442.241 232.277 442.81 232.769 443.51 233.034C444.211 233.299 444.988 233.432 445.84 233.432C446.484 233.432 447.071 233.384 447.601 233.29C448.15 233.195 448.567 233.11 448.851 233.034L450.584 241.074C450.035 241.263 449.249 241.472 448.226 241.699C447.222 241.926 445.991 242.059 444.533 242.097C441.957 242.172 439.637 241.784 437.573 240.932C435.508 240.061 433.87 238.716 432.658 236.898C431.465 235.08 430.878 232.807 430.897 230.08V187.409ZM475.455 242.352C471.194 242.352 467.5 241.415 464.375 239.54C461.25 237.665 458.826 235.042 457.103 231.67C455.398 228.299 454.546 224.36 454.546 219.852C454.546 215.345 455.398 211.396 457.103 208.006C458.826 204.616 461.25 201.983 464.375 200.108C467.5 198.233 471.194 197.295 475.455 197.295C479.716 197.295 483.409 198.233 486.534 200.108C489.659 201.983 492.074 204.616 493.779 208.006C495.502 211.396 496.364 215.345 496.364 219.852C496.364 224.36 495.502 228.299 493.779 231.67C492.074 235.042 489.659 237.665 486.534 239.54C483.409 241.415 479.716 242.352 475.455 242.352ZM475.512 234.114C477.822 234.114 479.754 233.479 481.307 232.21C482.86 230.922 484.016 229.199 484.773 227.04C485.55 224.881 485.938 222.475 485.938 219.824C485.938 217.153 485.55 214.739 484.773 212.58C484.016 210.402 482.86 208.669 481.307 207.381C479.754 206.093 477.822 205.449 475.512 205.449C473.144 205.449 471.175 206.093 469.603 207.381C468.05 208.669 466.885 210.402 466.108 212.58C465.351 214.739 464.972 217.153 464.972 219.824C464.972 222.475 465.351 224.881 466.108 227.04C466.885 229.199 468.05 230.922 469.603 232.21C471.175 233.479 473.144 234.114 475.512 234.114ZM503.593 241.5V197.864H513.422V205.278H513.934C514.843 202.778 516.348 200.828 518.451 199.426C520.553 198.006 523.062 197.295 525.979 197.295C528.934 197.295 531.424 198.015 533.451 199.455C535.496 200.875 536.935 202.816 537.769 205.278H538.223C539.189 202.854 540.818 200.922 543.11 199.483C545.42 198.025 548.157 197.295 551.32 197.295C555.335 197.295 558.612 198.564 561.15 201.102C563.687 203.64 564.956 207.343 564.956 212.21V241.5H554.644V213.801C554.644 211.093 553.924 209.114 552.485 207.864C551.045 206.595 549.284 205.96 547.201 205.96C544.72 205.96 542.778 206.737 541.377 208.29C539.994 209.824 539.303 211.822 539.303 214.284V241.5H529.218V213.375C529.218 211.121 528.536 209.322 527.172 207.977C525.828 206.633 524.066 205.96 521.888 205.96C520.411 205.96 519.066 206.339 517.854 207.097C516.642 207.835 515.676 208.886 514.956 210.25C514.237 211.595 513.877 213.167 513.877 214.966V241.5H503.593ZM593.208 242.352C588.833 242.352 585.054 241.443 581.873 239.625C578.71 237.788 576.276 235.193 574.571 231.841C572.867 228.47 572.015 224.502 572.015 219.938C572.015 215.449 572.867 211.509 574.571 208.119C576.295 204.71 578.7 202.059 581.787 200.165C584.874 198.252 588.501 197.295 592.668 197.295C595.357 197.295 597.895 197.731 600.282 198.602C602.687 199.455 604.808 200.78 606.645 202.58C608.501 204.379 609.96 206.67 611.02 209.455C612.081 212.22 612.611 215.515 612.611 219.341V222.494H576.844V215.562H602.753C602.734 213.593 602.308 211.841 601.475 210.307C600.641 208.754 599.477 207.532 597.98 206.642C596.503 205.752 594.78 205.307 592.81 205.307C590.708 205.307 588.861 205.818 587.27 206.841C585.679 207.845 584.439 209.17 583.549 210.818C582.677 212.447 582.232 214.237 582.213 216.188V222.239C582.213 224.777 582.677 226.955 583.605 228.773C584.533 230.572 585.831 231.955 587.498 232.92C589.164 233.867 591.115 234.341 593.35 234.341C594.846 234.341 596.2 234.133 597.412 233.716C598.624 233.28 599.676 232.646 600.566 231.812C601.456 230.979 602.128 229.947 602.583 228.716L612.185 229.795C611.579 232.333 610.424 234.549 608.719 236.443C607.034 238.318 604.874 239.777 602.242 240.818C599.609 241.841 596.598 242.352 593.208 242.352ZM619.811 241.5V197.864H629.783V205.136H630.238C631.033 202.617 632.397 200.676 634.328 199.312C636.279 197.93 638.505 197.239 641.005 197.239C641.573 197.239 642.207 197.267 642.908 197.324C643.628 197.362 644.224 197.428 644.698 197.523V206.983C644.262 206.831 643.571 206.699 642.624 206.585C641.696 206.453 640.796 206.386 639.925 206.386C638.05 206.386 636.364 206.794 634.868 207.608C633.391 208.403 632.226 209.511 631.374 210.932C630.522 212.352 630.096 213.991 630.096 215.847V241.5H619.811ZM668.828 241.5V183.318H690.647C695.116 183.318 698.866 184.095 701.897 185.648C704.946 187.201 707.247 189.379 708.8 192.182C710.372 194.966 711.158 198.214 711.158 201.926C711.158 205.657 710.363 208.896 708.772 211.642C707.2 214.369 704.88 216.481 701.811 217.977C698.743 219.455 694.974 220.193 690.505 220.193H674.965V211.443H689.084C691.698 211.443 693.838 211.083 695.505 210.364C697.171 209.625 698.402 208.555 699.198 207.153C700.012 205.733 700.419 203.991 700.419 201.926C700.419 199.862 700.012 198.1 699.198 196.642C698.383 195.165 697.143 194.047 695.476 193.29C693.81 192.513 691.66 192.125 689.027 192.125H679.368V241.5H668.828ZM698.885 215.136L713.289 241.5H701.527L687.38 215.136H698.885ZM737.598 242.352C733.223 242.352 729.445 241.443 726.263 239.625C723.1 237.788 720.667 235.193 718.962 231.841C717.257 228.47 716.405 224.502 716.405 219.938C716.405 215.449 717.257 211.509 718.962 208.119C720.685 204.71 723.091 202.059 726.178 200.165C729.265 198.252 732.892 197.295 737.059 197.295C739.748 197.295 742.286 197.731 744.672 198.602C747.078 199.455 749.199 200.78 751.036 202.58C752.892 204.379 754.35 206.67 755.411 209.455C756.471 212.22 757.002 215.515 757.002 219.341V222.494H721.235V215.562H747.144C747.125 213.593 746.699 211.841 745.865 210.307C745.032 208.754 743.867 207.532 742.371 206.642C740.894 205.752 739.17 205.307 737.201 205.307C735.098 205.307 733.252 205.818 731.661 206.841C730.07 207.845 728.829 209.17 727.939 210.818C727.068 212.447 726.623 214.237 726.604 216.188V222.239C726.604 224.777 727.068 226.955 727.996 228.773C728.924 230.572 730.221 231.955 731.888 232.92C733.555 233.867 735.506 234.341 737.74 234.341C739.237 234.341 740.591 234.133 741.803 233.716C743.015 233.28 744.066 232.646 744.956 231.812C745.846 230.979 746.519 229.947 746.973 228.716L756.576 229.795C755.97 232.333 754.814 234.549 753.11 236.443C751.424 238.318 749.265 239.777 746.632 240.818C744 241.841 740.989 242.352 737.598 242.352ZM774.486 183.318V241.5H764.202V183.318H774.486ZM796.118 242.381C793.353 242.381 790.863 241.888 788.647 240.903C786.45 239.9 784.707 238.422 783.419 236.472C782.15 234.521 781.516 232.116 781.516 229.256C781.516 226.794 781.971 224.758 782.88 223.148C783.789 221.538 785.029 220.25 786.601 219.284C788.173 218.318 789.944 217.589 791.914 217.097C793.902 216.585 795.957 216.216 798.078 215.989C800.635 215.723 802.709 215.487 804.3 215.278C805.891 215.051 807.046 214.71 807.766 214.256C808.505 213.782 808.874 213.053 808.874 212.068V211.898C808.874 209.758 808.239 208.1 806.971 206.926C805.702 205.752 803.874 205.165 801.488 205.165C798.969 205.165 796.971 205.714 795.493 206.812C794.035 207.911 793.05 209.208 792.539 210.705L782.936 209.341C783.694 206.689 784.944 204.473 786.686 202.693C788.429 200.894 790.56 199.549 793.078 198.659C795.597 197.75 798.382 197.295 801.431 197.295C803.533 197.295 805.626 197.542 807.709 198.034C809.792 198.527 811.696 199.341 813.419 200.477C815.143 201.595 816.525 203.119 817.567 205.051C818.628 206.983 819.158 209.398 819.158 212.295V241.5H809.272V235.506H808.931C808.306 236.718 807.425 237.854 806.289 238.915C805.171 239.956 803.76 240.799 802.056 241.443C800.37 242.068 798.391 242.381 796.118 242.381ZM798.789 234.824C800.853 234.824 802.643 234.417 804.158 233.602C805.673 232.769 806.838 231.67 807.652 230.307C808.486 228.943 808.902 227.456 808.902 225.847V220.705C808.58 220.97 808.031 221.216 807.255 221.443C806.497 221.67 805.645 221.869 804.698 222.04C803.751 222.21 802.813 222.362 801.885 222.494C800.957 222.627 800.152 222.741 799.471 222.835C797.936 223.044 796.563 223.384 795.351 223.858C794.139 224.331 793.183 224.994 792.482 225.847C791.781 226.68 791.431 227.759 791.431 229.085C791.431 230.979 792.122 232.409 793.505 233.375C794.887 234.341 796.649 234.824 798.789 234.824ZM849.789 197.864V205.818H824.703V197.864H849.789ZM830.897 187.409H841.181V228.375C841.181 229.758 841.389 230.818 841.806 231.557C842.241 232.277 842.81 232.769 843.51 233.034C844.211 233.299 844.988 233.432 845.84 233.432C846.484 233.432 847.071 233.384 847.601 233.29C848.15 233.195 848.567 233.11 848.851 233.034L850.584 241.074C850.035 241.263 849.249 241.472 848.226 241.699C847.222 241.926 845.991 242.059 844.533 242.097C841.957 242.172 839.637 241.784 837.573 240.932C835.508 240.061 833.87 238.716 832.658 236.898C831.465 235.08 830.878 232.807 830.897 230.08V187.409ZM856.89 241.5V197.864H867.174V241.5H856.89ZM862.06 191.67C860.431 191.67 859.03 191.131 857.855 190.051C856.681 188.953 856.094 187.636 856.094 186.102C856.094 184.549 856.681 183.233 857.855 182.153C859.03 181.055 860.431 180.506 862.06 180.506C863.708 180.506 865.109 181.055 866.265 182.153C867.439 183.233 868.026 184.549 868.026 186.102C868.026 187.636 867.439 188.953 866.265 190.051C865.109 191.131 863.708 191.67 862.06 191.67ZM895.283 242.352C891.022 242.352 887.328 241.415 884.203 239.54C881.078 237.665 878.654 235.042 876.931 231.67C875.226 228.299 874.374 224.36 874.374 219.852C874.374 215.345 875.226 211.396 876.931 208.006C878.654 204.616 881.078 201.983 884.203 200.108C887.328 198.233 891.022 197.295 895.283 197.295C899.544 197.295 903.238 198.233 906.363 200.108C909.488 201.983 911.902 204.616 913.607 208.006C915.33 211.396 916.192 215.345 916.192 219.852C916.192 224.36 915.33 228.299 913.607 231.67C911.902 235.042 909.488 237.665 906.363 239.54C903.238 241.415 899.544 242.352 895.283 242.352ZM895.34 234.114C897.65 234.114 899.582 233.479 901.135 232.21C902.688 230.922 903.844 229.199 904.601 227.04C905.378 224.881 905.766 222.475 905.766 219.824C905.766 217.153 905.378 214.739 904.601 212.58C903.844 210.402 902.688 208.669 901.135 207.381C899.582 206.093 897.65 205.449 895.34 205.449C892.972 205.449 891.003 206.093 889.431 207.381C887.878 208.669 886.713 210.402 885.936 212.58C885.179 214.739 884.8 217.153 884.8 219.824C884.8 222.475 885.179 224.881 885.936 227.04C886.713 229.199 887.878 230.922 889.431 232.21C891.003 233.479 892.972 234.114 895.34 234.114ZM933.705 215.932V241.5H923.421V197.864H933.25V205.278H933.762C934.766 202.835 936.366 200.894 938.563 199.455C940.779 198.015 943.516 197.295 946.773 197.295C949.784 197.295 952.408 197.939 954.642 199.227C956.896 200.515 958.639 202.381 959.87 204.824C961.12 207.267 961.735 210.231 961.716 213.716V241.5H951.432V215.307C951.432 212.39 950.675 210.108 949.159 208.46C947.663 206.812 945.589 205.989 942.938 205.989C941.139 205.989 939.538 206.386 938.137 207.182C936.754 207.958 935.665 209.085 934.87 210.562C934.093 212.04 933.705 213.83 933.705 215.932ZM1005.16 209.398L995.784 210.42C995.519 209.473 995.055 208.583 994.392 207.75C993.748 206.917 992.877 206.244 991.779 205.733C990.68 205.222 989.336 204.966 987.745 204.966C985.605 204.966 983.805 205.43 982.347 206.358C980.908 207.286 980.197 208.489 980.216 209.966C980.197 211.235 980.661 212.267 981.608 213.062C982.574 213.858 984.165 214.511 986.381 215.023L993.824 216.614C997.953 217.504 1001.02 218.915 1003.03 220.847C1005.06 222.778 1006.08 225.307 1006.1 228.432C1006.08 231.178 1005.27 233.602 1003.68 235.705C1002.11 237.788 999.923 239.417 997.12 240.591C994.317 241.765 991.097 242.352 987.461 242.352C982.12 242.352 977.82 241.235 974.563 239C971.305 236.746 969.364 233.612 968.739 229.597L978.767 228.631C979.222 230.6 980.188 232.087 981.665 233.091C983.142 234.095 985.065 234.597 987.432 234.597C989.875 234.597 991.836 234.095 993.313 233.091C994.809 232.087 995.557 230.847 995.557 229.369C995.557 228.119 995.074 227.087 994.108 226.273C993.161 225.458 991.684 224.833 989.676 224.398L982.233 222.835C978.048 221.964 974.951 220.496 972.944 218.432C970.936 216.348 969.942 213.716 969.961 210.534C969.942 207.845 970.671 205.515 972.148 203.545C973.644 201.557 975.718 200.023 978.37 198.943C981.04 197.845 984.118 197.295 987.603 197.295C992.716 197.295 996.741 198.384 999.676 200.562C1002.63 202.741 1004.46 205.686 1005.16 209.398ZM1023.36 215.932V241.5H1013.08V183.318H1023.13V205.278H1023.65C1024.67 202.816 1026.25 200.875 1028.39 199.455C1030.55 198.015 1033.29 197.295 1036.63 197.295C1039.66 197.295 1042.3 197.93 1044.55 199.199C1046.81 200.468 1048.55 202.324 1049.78 204.767C1051.03 207.21 1051.66 210.193 1051.66 213.716V241.5H1041.37V215.307C1041.37 212.371 1040.61 210.089 1039.1 208.46C1037.6 206.812 1035.5 205.989 1032.79 205.989C1030.97 205.989 1029.35 206.386 1027.91 207.182C1026.49 207.958 1025.37 209.085 1024.55 210.562C1023.76 212.04 1023.36 213.83 1023.36 215.932ZM1060.64 241.5V197.864H1070.92V241.5H1060.64ZM1065.81 191.67C1064.18 191.67 1062.78 191.131 1061.61 190.051C1060.43 188.953 1059.84 187.636 1059.84 186.102C1059.84 184.549 1060.43 183.233 1061.61 182.153C1062.78 181.055 1064.18 180.506 1065.81 180.506C1067.46 180.506 1068.86 181.055 1070.01 182.153C1071.19 183.233 1071.78 184.549 1071.78 186.102C1071.78 187.636 1071.19 188.953 1070.01 190.051C1068.86 191.131 1067.46 191.67 1065.81 191.67ZM1080 257.864V197.864H1090.11V205.08H1090.71C1091.24 204.019 1091.99 202.892 1092.95 201.699C1093.92 200.487 1095.23 199.455 1096.87 198.602C1098.52 197.731 1100.62 197.295 1103.18 197.295C1106.55 197.295 1109.59 198.157 1112.3 199.881C1115.03 201.585 1117.19 204.114 1118.78 207.466C1120.39 210.799 1121.19 214.89 1121.19 219.739C1121.19 224.53 1120.41 228.602 1118.83 231.955C1117.26 235.307 1115.12 237.864 1112.41 239.625C1109.71 241.386 1106.64 242.267 1103.21 242.267C1100.71 242.267 1098.64 241.85 1096.99 241.017C1095.34 240.184 1094.01 239.18 1093.01 238.006C1092.03 236.812 1091.26 235.686 1090.71 234.625H1090.28V257.864H1080ZM1090.08 219.682C1090.08 222.504 1090.48 224.975 1091.28 227.097C1092.09 229.218 1093.26 230.875 1094.77 232.068C1096.31 233.242 1098.16 233.83 1100.34 233.83C1102.61 233.83 1104.52 233.223 1106.05 232.011C1107.58 230.78 1108.74 229.104 1109.52 226.983C1110.31 224.843 1110.71 222.409 1110.71 219.682C1110.71 216.973 1110.32 214.568 1109.54 212.466C1108.77 210.364 1107.61 208.716 1106.08 207.523C1104.54 206.33 1102.63 205.733 1100.34 205.733C1098.14 205.733 1096.28 206.311 1094.74 207.466C1093.21 208.621 1092.04 210.241 1091.25 212.324C1090.47 214.407 1090.08 216.86 1090.08 219.682Z" fill="#0F1F3D"/>
<path d="M441.694 325.5V281.864H451.978V325.5H441.694ZM446.865 275.67C445.236 275.67 443.834 275.131 442.66 274.051C441.486 272.953 440.899 271.636 440.899 270.102C440.899 268.549 441.486 267.233 442.66 266.153C443.834 265.055 445.236 264.506 446.865 264.506C448.512 264.506 449.914 265.055 451.069 266.153C452.243 267.233 452.831 268.549 452.831 270.102C452.831 271.636 452.243 272.953 451.069 274.051C449.914 275.131 448.512 275.67 446.865 275.67ZM471.338 299.932V325.5H461.054V281.864H470.883V289.278H471.395C472.398 286.835 473.999 284.894 476.196 283.455C478.412 282.015 481.148 281.295 484.406 281.295C487.417 281.295 490.04 281.939 492.275 283.227C494.529 284.515 496.271 286.381 497.502 288.824C498.752 291.267 499.368 294.231 499.349 297.716V325.5H489.065V299.307C489.065 296.39 488.307 294.108 486.792 292.46C485.296 290.812 483.222 289.989 480.571 289.989C478.771 289.989 477.171 290.386 475.77 291.182C474.387 291.958 473.298 293.085 472.502 294.562C471.726 296.04 471.338 297.83 471.338 299.932ZM545.625 342.773C541.931 342.773 538.759 342.271 536.108 341.267C533.456 340.282 531.325 338.956 529.716 337.29C528.106 335.623 526.988 333.777 526.363 331.75L535.625 329.506C536.041 330.358 536.647 331.201 537.443 332.034C538.238 332.886 539.308 333.587 540.653 334.136C542.017 334.705 543.731 334.989 545.795 334.989C548.712 334.989 551.127 334.278 553.039 332.858C554.952 331.456 555.909 329.146 555.909 325.926V317.659H555.397C554.867 318.72 554.091 319.809 553.068 320.926C552.064 322.044 550.729 322.981 549.062 323.739C547.414 324.496 545.341 324.875 542.841 324.875C539.488 324.875 536.449 324.089 533.721 322.517C531.013 320.926 528.854 318.559 527.244 315.415C525.653 312.252 524.858 308.294 524.858 303.54C524.858 298.748 525.653 294.705 527.244 291.409C528.854 288.095 531.022 285.585 533.75 283.881C536.477 282.157 539.517 281.295 542.869 281.295C545.426 281.295 547.528 281.731 549.176 282.602C550.842 283.455 552.168 284.487 553.153 285.699C554.138 286.892 554.886 288.019 555.397 289.08H555.966V281.864H566.108V326.21C566.108 329.941 565.217 333.028 563.437 335.472C561.657 337.915 559.223 339.742 556.136 340.955C553.049 342.167 549.545 342.773 545.625 342.773ZM545.71 316.807C547.888 316.807 549.744 316.277 551.278 315.216C552.812 314.155 553.977 312.631 554.772 310.642C555.568 308.653 555.966 306.267 555.966 303.483C555.966 300.737 555.568 298.331 554.772 296.267C553.996 294.203 552.841 292.602 551.306 291.466C549.791 290.311 547.926 289.733 545.71 289.733C543.418 289.733 541.505 290.33 539.971 291.523C538.437 292.716 537.282 294.354 536.505 296.438C535.729 298.502 535.341 300.85 535.341 303.483C535.341 306.153 535.729 308.492 536.505 310.5C537.301 312.489 538.466 314.042 540 315.159C541.553 316.258 543.456 316.807 545.71 316.807ZM594.181 326.352C589.92 326.352 586.227 325.415 583.102 323.54C579.977 321.665 577.553 319.042 575.829 315.67C574.125 312.299 573.272 308.36 573.272 303.852C573.272 299.345 574.125 295.396 575.829 292.006C577.553 288.616 579.977 285.983 583.102 284.108C586.227 282.233 589.92 281.295 594.181 281.295C598.443 281.295 602.136 282.233 605.261 284.108C608.386 285.983 610.801 288.616 612.505 292.006C614.229 295.396 615.091 299.345 615.091 303.852C615.091 308.36 614.229 312.299 612.505 315.67C610.801 319.042 608.386 321.665 605.261 323.54C602.136 325.415 598.443 326.352 594.181 326.352ZM594.238 318.114C596.549 318.114 598.481 317.479 600.034 316.21C601.587 314.922 602.742 313.199 603.5 311.04C604.276 308.881 604.664 306.475 604.664 303.824C604.664 301.153 604.276 298.739 603.5 296.58C602.742 294.402 601.587 292.669 600.034 291.381C598.481 290.093 596.549 289.449 594.238 289.449C591.871 289.449 589.901 290.093 588.329 291.381C586.776 292.669 585.611 294.402 584.835 296.58C584.077 298.739 583.699 301.153 583.699 303.824C583.699 306.475 584.077 308.881 584.835 311.04C585.611 313.199 586.776 314.922 588.329 316.21C589.901 317.479 591.871 318.114 594.238 318.114ZM641.353 326.352C637.092 326.352 633.399 325.415 630.274 323.54C627.149 321.665 624.725 319.042 623.001 315.67C621.297 312.299 620.444 308.36 620.444 303.852C620.444 299.345 621.297 295.396 623.001 292.006C624.725 288.616 627.149 285.983 630.274 284.108C633.399 282.233 637.092 281.295 641.353 281.295C645.615 281.295 649.308 282.233 652.433 284.108C655.558 285.983 657.973 288.616 659.677 292.006C661.401 295.396 662.262 299.345 662.262 303.852C662.262 308.36 661.401 312.299 659.677 315.67C657.973 319.042 655.558 321.665 652.433 323.54C649.308 325.415 645.615 326.352 641.353 326.352ZM641.41 318.114C643.721 318.114 645.653 317.479 647.206 316.21C648.759 314.922 649.914 313.199 650.672 311.04C651.448 308.881 651.836 306.475 651.836 303.824C651.836 301.153 651.448 298.739 650.672 296.58C649.914 294.402 648.759 292.669 647.206 291.381C645.653 290.093 643.721 289.449 641.41 289.449C639.043 289.449 637.073 290.093 635.501 291.381C633.948 292.669 632.783 294.402 632.007 296.58C631.249 298.739 630.87 301.153 630.87 303.824C630.87 306.475 631.249 308.881 632.007 311.04C632.783 313.199 633.948 314.922 635.501 316.21C637.073 317.479 639.043 318.114 641.41 318.114ZM685.684 326.267C682.256 326.267 679.188 325.386 676.48 323.625C673.771 321.864 671.631 319.307 670.059 315.955C668.487 312.602 667.701 308.53 667.701 303.739C667.701 298.89 668.497 294.799 670.088 291.466C671.698 288.114 673.866 285.585 676.593 283.881C679.321 282.157 682.36 281.295 685.713 281.295C688.27 281.295 690.372 281.731 692.02 282.602C693.667 283.455 694.974 284.487 695.94 285.699C696.906 286.892 697.654 288.019 698.184 289.08H698.61V267.318H708.923V325.5H698.809V318.625H698.184C697.654 319.686 696.887 320.812 695.883 322.006C694.879 323.18 693.554 324.184 691.906 325.017C690.258 325.85 688.184 326.267 685.684 326.267ZM688.554 317.83C690.732 317.83 692.588 317.242 694.122 316.068C695.656 314.875 696.821 313.218 697.616 311.097C698.412 308.975 698.809 306.504 698.809 303.682C698.809 300.86 698.412 298.407 697.616 296.324C696.84 294.241 695.684 292.621 694.15 291.466C692.635 290.311 690.77 289.733 688.554 289.733C686.262 289.733 684.349 290.33 682.815 291.523C681.281 292.716 680.126 294.364 679.349 296.466C678.573 298.568 678.184 300.973 678.184 303.682C678.184 306.409 678.573 308.843 679.349 310.983C680.145 313.104 681.309 314.78 682.843 316.011C684.396 317.223 686.3 317.83 688.554 317.83ZM747.01 299.932V325.5H736.725V267.318H746.782V289.278H747.294C748.316 286.816 749.898 284.875 752.038 283.455C754.197 282.015 756.943 281.295 760.277 281.295C763.307 281.295 765.949 281.93 768.203 283.199C770.457 284.468 772.199 286.324 773.43 288.767C774.68 291.21 775.305 294.193 775.305 297.716V325.5H765.021V299.307C765.021 296.371 764.263 294.089 762.748 292.46C761.252 290.812 759.15 289.989 756.441 289.989C754.623 289.989 752.994 290.386 751.555 291.182C750.135 291.958 749.017 293.085 748.203 294.562C747.407 296.04 747.01 297.83 747.01 299.932ZM796.845 326.381C794.08 326.381 791.589 325.888 789.373 324.903C787.176 323.9 785.434 322.422 784.146 320.472C782.877 318.521 782.243 316.116 782.243 313.256C782.243 310.794 782.697 308.758 783.606 307.148C784.515 305.538 785.756 304.25 787.328 303.284C788.9 302.318 790.671 301.589 792.64 301.097C794.629 300.585 796.684 300.216 798.805 299.989C801.362 299.723 803.436 299.487 805.027 299.278C806.618 299.051 807.773 298.71 808.493 298.256C809.231 297.782 809.6 297.053 809.6 296.068V295.898C809.6 293.758 808.966 292.1 807.697 290.926C806.428 289.752 804.6 289.165 802.214 289.165C799.695 289.165 797.697 289.714 796.22 290.812C794.761 291.911 793.777 293.208 793.265 294.705L783.663 293.341C784.421 290.689 785.671 288.473 787.413 286.693C789.155 284.894 791.286 283.549 793.805 282.659C796.324 281.75 799.108 281.295 802.157 281.295C804.26 281.295 806.352 281.542 808.436 282.034C810.519 282.527 812.422 283.341 814.146 284.477C815.869 285.595 817.252 287.119 818.294 289.051C819.354 290.983 819.885 293.398 819.885 296.295V325.5H809.998V319.506H809.657C809.032 320.718 808.152 321.854 807.015 322.915C805.898 323.956 804.487 324.799 802.782 325.443C801.097 326.068 799.118 326.381 796.845 326.381ZM799.515 318.824C801.58 318.824 803.369 318.417 804.885 317.602C806.4 316.769 807.565 315.67 808.379 314.307C809.212 312.943 809.629 311.456 809.629 309.847V304.705C809.307 304.97 808.758 305.216 807.981 305.443C807.224 305.67 806.371 305.869 805.424 306.04C804.477 306.21 803.54 306.362 802.612 306.494C801.684 306.627 800.879 306.741 800.197 306.835C798.663 307.044 797.29 307.384 796.078 307.858C794.866 308.331 793.909 308.994 793.208 309.847C792.508 310.68 792.157 311.759 792.157 313.085C792.157 314.979 792.849 316.409 794.231 317.375C795.614 318.341 797.375 318.824 799.515 318.824ZM839.01 299.932V325.5H828.725V281.864H838.555V289.278H839.066C840.07 286.835 841.671 284.894 843.868 283.455C846.083 282.015 848.82 281.295 852.078 281.295C855.089 281.295 857.712 281.939 859.947 283.227C862.201 284.515 863.943 286.381 865.174 288.824C866.424 291.267 867.04 294.231 867.021 297.716V325.5H856.737V299.307C856.737 296.39 855.979 294.108 854.464 292.46C852.968 290.812 850.894 289.989 848.243 289.989C846.443 289.989 844.843 290.386 843.441 291.182C842.059 291.958 840.97 293.085 840.174 294.562C839.398 296.04 839.01 297.83 839.01 299.932ZM892.169 326.267C888.741 326.267 885.672 325.386 882.964 323.625C880.256 321.864 878.116 319.307 876.544 315.955C874.972 312.602 874.186 308.53 874.186 303.739C874.186 298.89 874.981 294.799 876.572 291.466C878.182 288.114 880.35 285.585 883.078 283.881C885.805 282.157 888.845 281.295 892.197 281.295C894.754 281.295 896.856 281.731 898.504 282.602C900.152 283.455 901.458 284.487 902.424 285.699C903.39 286.892 904.138 288.019 904.669 289.08H905.095V267.318H915.407V325.5H905.294V318.625H904.669C904.138 319.686 903.371 320.812 902.368 322.006C901.364 323.18 900.038 324.184 898.39 325.017C896.743 325.85 894.669 326.267 892.169 326.267ZM895.038 317.83C897.216 317.83 899.072 317.242 900.606 316.068C902.14 314.875 903.305 313.218 904.1 311.097C904.896 308.975 905.294 306.504 905.294 303.682C905.294 300.86 904.896 298.407 904.1 296.324C903.324 294.241 902.169 292.621 900.635 291.466C899.119 290.311 897.254 289.733 895.038 289.733C892.746 289.733 890.833 290.33 889.299 291.523C887.765 292.716 886.61 294.364 885.833 296.466C885.057 298.568 884.669 300.973 884.669 303.682C884.669 306.409 885.057 308.843 885.833 310.983C886.629 313.104 887.794 314.78 889.328 316.011C890.881 317.223 892.784 317.83 895.038 317.83ZM959.355 293.398L949.98 294.42C949.715 293.473 949.251 292.583 948.588 291.75C947.944 290.917 947.073 290.244 945.974 289.733C944.876 289.222 943.531 288.966 941.94 288.966C939.8 288.966 938.001 289.43 936.542 290.358C935.103 291.286 934.393 292.489 934.412 293.966C934.393 295.235 934.857 296.267 935.804 297.062C936.77 297.858 938.36 298.511 940.576 299.023L948.02 300.614C952.148 301.504 955.217 302.915 957.224 304.847C959.251 306.778 960.273 309.307 960.292 312.432C960.273 315.178 959.468 317.602 957.877 319.705C956.306 321.788 954.118 323.417 951.315 324.591C948.512 325.765 945.292 326.352 941.656 326.352C936.315 326.352 932.016 325.235 928.758 323C925.501 320.746 923.559 317.612 922.934 313.597L932.963 312.631C933.417 314.6 934.383 316.087 935.86 317.091C937.338 318.095 939.26 318.597 941.627 318.597C944.071 318.597 946.031 318.095 947.508 317.091C949.004 316.087 949.752 314.847 949.752 313.369C949.752 312.119 949.27 311.087 948.304 310.273C947.357 309.458 945.879 308.833 943.872 308.398L936.429 306.835C932.243 305.964 929.146 304.496 927.139 302.432C925.131 300.348 924.137 297.716 924.156 294.534C924.137 291.845 924.866 289.515 926.343 287.545C927.84 285.557 929.913 284.023 932.565 282.943C935.235 281.845 938.313 281.295 941.798 281.295C946.912 281.295 950.936 282.384 953.872 284.562C956.826 286.741 958.654 289.686 959.355 293.398Z" fill="#FED229" fill-opacity="0.7"/>
<g clip-path="url(#clip3_387_526)">
<rect width="1400" height="755" transform="translate(0 -107)" fill="#0D0D0D"/>
<g opacity="0.5" filter="url(#filter0_f_387_526)">
<path d="M-37 681.5V359.5C530.6 537.9 1181.83 433.833 1436.5 359.5V681.5H-37Z" fill="#3AFFA3" fill-opacity="0.7"/>
</g>
</g>
<g opacity="0.2">
<g clip-path="url(#clip4_387_526)">
<g clip-path="url(#clip5_387_526)">
<g clip-path="url(#clip6_387_526)">
<g clip-path="url(#clip7_387_526)">
<path d="M49.5488 318.451V751.549" stroke="#C8C8C8" stroke-width="0.902287" stroke-linecap="round"/>
</g>
</g>
<g clip-path="url(#clip8_387_526)">
<g clip-path="url(#clip9_387_526)">
<path d="M99.5488 318.451V751.549" stroke="#C8C8C8" stroke-width="0.902287" stroke-linecap="round"/>
</g>
</g>
<g clip-path="url(#clip10_387_526)">
<g clip-path="url(#clip11_387_526)">
<path d="M149.549 318.451V751.549" stroke="#C8C8C8" stroke-width="0.902287" stroke-linecap="round"/>
</g>
</g>
<g clip-path="url(#clip12_387_526)">
<g clip-path="url(#clip13_387_526)">
<path d="M199.549 318.451V751.549" stroke="#C8C8C8" stroke-width="0.902287" stroke-linecap="round"/>
</g>
</g>
<g clip-path="url(#clip14_387_526)">
<g clip-path="url(#clip15_387_526)">
<path d="M249.549 318.451V751.549" stroke="#C8C8C8" stroke-width="0.902287" stroke-linecap="round"/>
</g>
</g>
<g clip-path="url(#clip16_387_526)">
<g clip-path="url(#clip17_387_526)">
<path d="M299.549 318.451V751.549" stroke="#C8C8C8" stroke-width="0.902287" stroke-linecap="round"/>
</g>
</g>
<g clip-path="url(#clip18_387_526)">
<g clip-path="url(#clip19_387_526)">
<path d="M349.549 318.451V751.549" stroke="#C8C8C8" stroke-width="0.902287" stroke-linecap="round"/>
</g>
</g>
<g clip-path="url(#clip20_387_526)">
<g clip-path="url(#clip21_387_526)">
<path d="M399.549 318.451V751.549" stroke="#C8C8C8" stroke-width="0.902287" stroke-linecap="round"/>
</g>
</g>
<g clip-path="url(#clip22_387_526)">
<g clip-path="url(#clip23_387_526)">
<path d="M449.549 318.451V751.549" stroke="#C8C8C8" stroke-width="0.902287" stroke-linecap="round"/>
</g>
</g>
<g clip-path="url(#clip24_387_526)">
<g clip-path="url(#clip25_387_526)">
<path d="M499.549 318.451V751.549" stroke="#C8C8C8" stroke-width="0.902287" stroke-linecap="round"/>
</g>
</g>
<g clip-path="url(#clip26_387_526)">
<g clip-path="url(#clip27_387_526)">
<path d="M549.549 318.451V751.549" stroke="#C8C8C8" stroke-width="0.902287" stroke-linecap="round"/>
</g>
</g>
<g clip-path="url(#clip28_387_526)">
<g clip-path="url(#clip29_387_526)">
<path d="M599.549 318.451V751.549" stroke="#C8C8C8" stroke-width="0.902287" stroke-linecap="round"/>
</g>
</g>
<g clip-path="url(#clip30_387_526)">
<g clip-path="url(#clip31_387_526)">
<path d="M649.549 318.451V751.549" stroke="#C8C8C8" stroke-width="0.902287" stroke-linecap="round"/>
</g>
</g>
<g clip-path="url(#clip32_387_526)">
<g clip-path="url(#clip33_387_526)">
<path d="M699.549 318.451V751.549" stroke="#C8C8C8" stroke-width="0.902287" stroke-linecap="round"/>
</g>
</g>
<g clip-path="url(#clip34_387_526)">
<g clip-path="url(#clip35_387_526)">
<path d="M749.549 318.451V751.549" stroke="#C8C8C8" stroke-width="0.902287" stroke-linecap="round"/>
</g>
</g>
<g clip-path="url(#clip36_387_526)">
<g clip-path="url(#clip37_387_526)">
<path d="M799.549 318.451V751.549" stroke="#C8C8C8" stroke-width="0.902287" stroke-linecap="round"/>
</g>
</g>
<g clip-path="url(#clip38_387_526)">
<g clip-path="url(#clip39_387_526)">
<path d="M849.549 318.451V751.549" stroke="#C8C8C8" stroke-width="0.902287" stroke-linecap="round"/>
</g>
</g>
<g clip-path="url(#clip40_387_526)">
<g clip-path="url(#clip41_387_526)">
<path d="M899.549 318.451V751.549" stroke="#C8C8C8" stroke-width="0.902287" stroke-linecap="round"/>
</g>
</g>
<g clip-path="url(#clip42_387_526)">
<g clip-path="url(#clip43_387_526)">
<path d="M949.549 318.451V751.549" stroke="#C8C8C8" stroke-width="0.902287" stroke-linecap="round"/>
</g>
</g>
<g clip-path="url(#clip44_387_526)">
<g clip-path="url(#clip45_387_526)">
<path d="M999.549 318.451V751.549" stroke="#C8C8C8" stroke-width="0.902287" stroke-linecap="round"/>
</g>
</g>
<g clip-path="url(#clip46_387_526)">
<g clip-path="url(#clip47_387_526)">
<path d="M1049.55 318.451V751.549" stroke="#C8C8C8" stroke-width="0.902287" stroke-linecap="round"/>
</g>
</g>
<g clip-path="url(#clip48_387_526)">
<g clip-path="url(#clip49_387_526)">
<path d="M1099.55 318.451V751.549" stroke="#C8C8C8" stroke-width="0.902287" stroke-linecap="round"/>
</g>
</g>
<g clip-path="url(#clip50_387_526)">
<g clip-path="url(#clip51_387_526)">
<path d="M1149.55 318.451V751.549" stroke="#C8C8C8" stroke-width="0.902287" stroke-linecap="round"/>
</g>
</g>
<g clip-path="url(#clip52_387_526)">
<g clip-path="url(#clip53_387_526)">
<path d="M1199.55 318.451V751.549" stroke="#C8C8C8" stroke-width="0.902287" stroke-linecap="round"/>
</g>
</g>
<g clip-path="url(#clip54_387_526)">
<g clip-path="url(#clip55_387_526)">
<path d="M1249.55 318.451V751.549" stroke="#C8C8C8" stroke-width="0.902287" stroke-linecap="round"/>
</g>
</g>
<g clip-path="url(#clip56_387_526)">
<g clip-path="url(#clip57_387_526)">
<path d="M1299.55 318.451V751.549" stroke="#C8C8C8" stroke-width="0.902287" stroke-linecap="round"/>
</g>
</g>
<g clip-path="url(#clip58_387_526)">
<g clip-path="url(#clip59_387_526)">
<path d="M1349.55 318.451V751.549" stroke="#C8C8C8" stroke-width="0.902287" stroke-linecap="round"/>
</g>
</g>
</g>
<g clip-path="url(#clip60_387_526)">
<g clip-path="url(#clip61_387_526)">
<path d="M3.41992 321.837H1396.58" stroke="#C8C8C8" stroke-width="1.396" stroke-linecap="round"/>
</g>
</g>
<g clip-path="url(#clip62_387_526)">
<g clip-path="url(#clip63_387_526)">
<path d="M3.41992 371.837H1396.58" stroke="#C8C8C8" stroke-width="1.396" stroke-linecap="round"/>
</g>
</g>
<g clip-path="url(#clip64_387_526)">
<g clip-path="url(#clip65_387_526)">
<path d="M3.41992 421.837H1396.58" stroke="#C8C8C8" stroke-width="1.396" stroke-linecap="round"/>
</g>
</g>
<g clip-path="url(#clip66_387_526)">
<g clip-path="url(#clip67_387_526)">
<path d="M3.41992 471.837H1396.58" stroke="#C8C8C8" stroke-width="1.396" stroke-linecap="round"/>
</g>
</g>
<g clip-path="url(#clip68_387_526)">
<g clip-path="url(#clip69_387_526)">
<path d="M3.41992 521.837H1396.58" stroke="#C8C8C8" stroke-width="1.396" stroke-linecap="round"/>
</g>
</g>
<g clip-path="url(#clip70_387_526)">
<g clip-path="url(#clip71_387_526)">
<path d="M3.41992 571.837H1396.58" stroke="#C8C8C8" stroke-width="1.396" stroke-linecap="round"/>
</g>
</g>
<g clip-path="url(#clip72_387_526)">
<g clip-path="url(#clip73_387_526)">
<path d="M3.41992 621.837H1396.58" stroke="#C8C8C8" stroke-width="1.396" stroke-linecap="round"/>
</g>
</g>
</g>
</g>
</g>
<defs>
<filter id="filter0_f_387_526" x="-237" y="159.5" width="1873.5" height="722" filterUnits="userSpaceOnUse" color-interpolation-filters="sRGB">
<feFlood flood-opacity="0" result="BackgroundImageFix"/>
<feBlend mode="normal" in="SourceGraphic" in2="BackgroundImageFix" result="shape"/>
<feGaussianBlur stdDeviation="100" result="effect1_foregroundBlur_387_526"/>
</filter>
<clipPath id="clip0_387_526">
<rect width="1400" height="645" rx="30" fill="white"/>
</clipPath>
<clipPath id="clip1_387_526">
<rect width="204" height="19" fill="white" transform="translate(598 71.5)"/>
</clipPath>
<clipPath id="clip2_387_526">
<rect width="203.56" height="19" fill="white" transform="translate(598.221 70.92)"/>
</clipPath>
<clipPath id="clip3_387_526">
<rect width="1400" height="755" fill="white" transform="translate(0 -107)"/>
</clipPath>
<clipPath id="clip4_387_526">
<rect x="2" y="185" width="1396" height="460" rx="48" fill="white"/>
</clipPath>
<clipPath id="clip5_387_526">
<rect width="1396" height="460" fill="white" transform="translate(2 185)"/>
</clipPath>
<clipPath id="clip6_387_526">
<rect width="10" height="434" fill="white" transform="translate(45 318)"/>
</clipPath>
<clipPath id="clip7_387_526">
<rect width="10" height="434" fill="white" transform="translate(45 318)"/>
</clipPath>
<clipPath id="clip8_387_526">
<rect width="10" height="434" fill="white" transform="translate(95 318)"/>
</clipPath>
<clipPath id="clip9_387_526">
<rect width="10" height="434" fill="white" transform="translate(95 318)"/>
</clipPath>
<clipPath id="clip10_387_526">
<rect width="10" height="434" fill="white" transform="translate(145 318)"/>
</clipPath>
<clipPath id="clip11_387_526">
<rect width="10" height="434" fill="white" transform="translate(145 318)"/>
</clipPath>
<clipPath id="clip12_387_526">
<rect width="10" height="434" fill="white" transform="translate(195 318)"/>
</clipPath>
<clipPath id="clip13_387_526">
<rect width="10" height="434" fill="white" transform="translate(195 318)"/>
</clipPath>
<clipPath id="clip14_387_526">
<rect width="10" height="434" fill="white" transform="translate(245 318)"/>
</clipPath>
<clipPath id="clip15_387_526">
<rect width="10" height="434" fill="white" transform="translate(245 318)"/>
</clipPath>
<clipPath id="clip16_387_526">
<rect width="10" height="434" fill="white" transform="translate(295 318)"/>
</clipPath>
<clipPath id="clip17_387_526">
<rect width="10" height="434" fill="white" transform="translate(295 318)"/>
</clipPath>
<clipPath id="clip18_387_526">
<rect width="10" height="434" fill="white" transform="translate(345 318)"/>
</clipPath>
<clipPath id="clip19_387_526">
<rect width="10" height="434" fill="white" transform="translate(345 318)"/>
</clipPath>
<clipPath id="clip20_387_526">
<rect width="10" height="434" fill="white" transform="translate(395 318)"/>
</clipPath>
<clipPath id="clip21_387_526">
<rect width="10" height="434" fill="white" transform="translate(395 318)"/>
</clipPath>
<clipPath id="clip22_387_526">
<rect width="10" height="434" fill="white" transform="translate(445 318)"/>
</clipPath>
<clipPath id="clip23_387_526">
<rect width="10" height="434" fill="white" transform="translate(445 318)"/>
</clipPath>
<clipPath id="clip24_387_526">
<rect width="10" height="434" fill="white" transform="translate(495 318)"/>
</clipPath>
<clipPath id="clip25_387_526">
<rect width="10" height="434" fill="white" transform="translate(495 318)"/>
</clipPath>
<clipPath id="clip26_387_526">
<rect width="10" height="434" fill="white" transform="translate(545 318)"/>
</clipPath>
<clipPath id="clip27_387_526">
<rect width="10" height="434" fill="white" transform="translate(545 318)"/>
</clipPath>
<clipPath id="clip28_387_526">
<rect width="10" height="434" fill="white" transform="translate(595 318)"/>
</clipPath>
<clipPath id="clip29_387_526">
<rect width="10" height="434" fill="white" transform="translate(595 318)"/>
</clipPath>
<clipPath id="clip30_387_526">
<rect width="10" height="434" fill="white" transform="translate(645 318)"/>
</clipPath>
<clipPath id="clip31_387_526">
<rect width="10" height="434" fill="white" transform="translate(645 318)"/>
</clipPath>
<clipPath id="clip32_387_526">
<rect width="10" height="434" fill="white" transform="translate(695 318)"/>
</clipPath>
<clipPath id="clip33_387_526">
<rect width="10" height="434" fill="white" transform="translate(695 318)"/>
</clipPath>
<clipPath id="clip34_387_526">
<rect width="10" height="434" fill="white" transform="translate(745 318)"/>
</clipPath>
<clipPath id="clip35_387_526">
<rect width="10" height="434" fill="white" transform="translate(745 318)"/>
</clipPath>
<clipPath id="clip36_387_526">
<rect width="10" height="434" fill="white" transform="translate(795 318)"/>
</clipPath>
<clipPath id="clip37_387_526">
<rect width="10" height="434" fill="white" transform="translate(795 318)"/>
</clipPath>
<clipPath id="clip38_387_526">
<rect width="10" height="434" fill="white" transform="translate(845 318)"/>
</clipPath>
<clipPath id="clip39_387_526">
<rect width="10" height="434" fill="white" transform="translate(845 318)"/>
</clipPath>
<clipPath id="clip40_387_526">
<rect width="10" height="434" fill="white" transform="translate(895 318)"/>
</clipPath>
<clipPath id="clip41_387_526">
<rect width="10" height="434" fill="white" transform="translate(895 318)"/>
</clipPath>
<clipPath id="clip42_387_526">
<rect width="10" height="434" fill="white" transform="translate(945 318)"/>
</clipPath>
<clipPath id="clip43_387_526">
<rect width="10" height="434" fill="white" transform="translate(945 318)"/>
</clipPath>
<clipPath id="clip44_387_526">
<rect width="10" height="434" fill="white" transform="translate(995 318)"/>
</clipPath>
<clipPath id="clip45_387_526">
<rect width="10" height="434" fill="white" transform="translate(995 318)"/>
</clipPath>
<clipPath id="clip46_387_526">
<rect width="10" height="434" fill="white" transform="translate(1045 318)"/>
</clipPath>
<clipPath id="clip47_387_526">
<rect width="10" height="434" fill="white" transform="translate(1045 318)"/>
</clipPath>
<clipPath id="clip48_387_526">
<rect width="10" height="434" fill="white" transform="translate(1095 318)"/>
</clipPath>
<clipPath id="clip49_387_526">
<rect width="10" height="434" fill="white" transform="translate(1095 318)"/>
</clipPath>
<clipPath id="clip50_387_526">
<rect width="10" height="434" fill="white" transform="translate(1145 318)"/>
</clipPath>
<clipPath id="clip51_387_526">
<rect width="10" height="434" fill="white" transform="translate(1145 318)"/>
</clipPath>
<clipPath id="clip52_387_526">
<rect width="10" height="434" fill="white" transform="translate(1195 318)"/>
</clipPath>
<clipPath id="clip53_387_526">
<rect width="10" height="434" fill="white" transform="translate(1195 318)"/>
</clipPath>
<clipPath id="clip54_387_526">
<rect width="10" height="434" fill="white" transform="translate(1245 318)"/>
</clipPath>
<clipPath id="clip55_387_526">
<rect width="10" height="434" fill="white" transform="translate(1245 318)"/>
</clipPath>
<clipPath id="clip56_387_526">
<rect width="10" height="434" fill="white" transform="translate(1295 318)"/>
</clipPath>
<clipPath id="clip57_387_526">
<rect width="10" height="434" fill="white" transform="translate(1295 318)"/>
</clipPath>
<clipPath id="clip58_387_526">
<rect width="10" height="434" fill="white" transform="translate(1345 318)"/>
</clipPath>
<clipPath id="clip59_387_526">
<rect width="10" height="434" fill="white" transform="translate(1345 318)"/>
</clipPath>
<clipPath id="clip60_387_526">
<rect width="1396" height="10" fill="white" transform="translate(2 318)"/>
</clipPath>
<clipPath id="clip61_387_526">
<rect width="1396" height="10" fill="white" transform="translate(2 318)"/>
</clipPath>
<clipPath id="clip62_387_526">
<rect width="1396" height="10" fill="white" transform="translate(2 368)"/>
</clipPath>
<clipPath id="clip63_387_526">
<rect width="1396" height="10" fill="white" transform="translate(2 368)"/>
</clipPath>
<clipPath id="clip64_387_526">
<rect width="1396" height="10" fill="white" transform="translate(2 418)"/>
</clipPath>
<clipPath id="clip65_387_526">
<rect width="1396" height="10" fill="white" transform="translate(2 418)"/>
</clipPath>
<clipPath id="clip66_387_526">
<rect width="1396" height="10" fill="white" transform="translate(2 468)"/>
</clipPath>
<clipPath id="clip67_387_526">
<rect width="1396" height="10" fill="white" transform="translate(2 468)"/>
</clipPath>
<clipPath id="clip68_387_526">
<rect width="1396" height="10" fill="white" transform="translate(2 518)"/>
</clipPath>
<clipPath id="clip69_387_526">
<rect width="1396" height="10" fill="white" transform="translate(2 518)"/>
</clipPath>
<clipPath id="clip70_387_526">
<rect width="1396" height="10" fill="white" transform="translate(2 568)"/>
</clipPath>
<clipPath id="clip71_387_526">
<rect width="1396" height="10" fill="white" transform="translate(2 568)"/>
</clipPath>
<clipPath id="clip72_387_526">
<rect width="1396" height="10" fill="white" transform="translate(2 618)"/>
</clipPath>
<clipPath id="clip73_387_526">
<rect width="1396" height="10" fill="white" transform="translate(2 618)"/>
</clipPath>
</defs>
</svg>
