<svg width="1440" height="1364" viewBox="0 0 1440 1364" fill="none" xmlns="http://www.w3.org/2000/svg">
<ellipse cx="723.044" cy="489" rx="383.435" ry="803.126" transform="rotate(15 723.044 489)" fill="#0DA34E" fill-opacity="0.05"/>
<path d="M1091.37 587.694C1034.04 801.679 940.741 984.209 836.348 1106.35C731.842 1228.62 616.763 1289.79 515.726 1262.72C414.69 1235.65 345.617 1125.13 316.247 966.986C286.909 809.015 297.377 604.291 354.714 390.306C412.051 176.321 505.347 -6.20877 609.741 -128.347C714.246 -250.616 829.326 -311.793 930.362 -284.72C1031.4 -257.648 1100.47 -147.127 1129.84 11.0139C1159.18 168.985 1148.71 373.709 1091.37 587.694Z" stroke="#0CC05A" stroke-opacity="0.6" stroke-width="4.22268"/>
<ellipse cx="720" cy="489.59" rx="383.435" ry="803.126" transform="rotate(75 720 489.59)" fill="#0DA34E" fill-opacity="0.05"/>
<path d="M818.694 857.92C604.709 915.257 399.985 925.725 242.014 896.387C83.8731 867.017 -26.6478 797.944 -53.7204 696.908C-80.793 595.871 -19.6156 480.792 102.653 376.286C224.791 271.893 407.321 178.597 621.306 121.26C835.291 63.9227 1040.01 53.4543 1197.99 82.7927C1356.13 112.163 1466.65 181.236 1493.72 282.272C1520.79 383.308 1459.62 498.388 1337.35 602.893C1215.21 707.287 1032.68 800.583 818.694 857.92Z" stroke="#00FFA7" stroke-opacity="0.6" stroke-width="4.22268"/>
<ellipse cx="720.622" cy="489.621" rx="383.435" ry="803.126" transform="rotate(135 720.622 489.621)" fill="#0DA34E" fill-opacity="0.05"/>
<path d="M450.986 759.258C294.338 602.61 182.91 430.548 129.332 279.072C75.6969 127.433 80.2554 -2.81758 154.219 -76.7813C228.183 -150.745 358.433 -155.304 510.072 -101.668C661.548 -48.0905 833.61 63.3373 990.258 219.985C1146.91 376.633 1258.33 548.695 1311.91 700.171C1365.55 851.81 1360.99 982.06 1287.02 1056.02C1213.06 1129.99 1082.81 1134.55 931.171 1080.91C779.695 1027.33 607.633 915.905 450.986 759.258Z" stroke="#A3E4BC" stroke-opacity="0.6" stroke-width="4.22268"/>
</svg>
