<svg width="21" height="20" viewBox="0 0 21 20" fill="none" xmlns="http://www.w3.org/2000/svg">
<path d="M5.8669 3.19474C6.09162 2.26799 7.40968 2.26798 7.63441 3.19474L8.25275 5.74478C8.33299 6.07566 8.59133 6.334 8.92221 6.41424L11.4722 7.03259C12.399 7.25731 12.399 8.57537 11.4722 8.8001L8.92221 9.41844C8.59133 9.49868 8.33299 9.75702 8.25275 10.0879L7.63441 12.6379C7.40968 13.5647 6.09162 13.5647 5.8669 12.6379L5.24855 10.0879C5.16831 9.75702 4.90997 9.49868 4.57909 9.41844L2.02905 8.8001C1.1023 8.57537 1.10229 7.25731 2.02905 7.03259L4.57909 6.41424C4.90997 6.334 5.16831 6.07566 5.24855 5.74478L5.8669 3.19474Z" fill="#050505"/>
<path d="M13.2901 12.0941C13.4284 11.5238 14.2395 11.5238 14.3778 12.0941L14.7584 13.6633C14.8077 13.8669 14.9667 14.0259 15.1703 14.0753L16.7396 14.4558C17.3099 14.5941 17.3099 15.4052 16.7396 15.5435L15.1703 15.924C14.9667 15.9734 14.8077 16.1324 14.7584 16.336L14.3778 17.9053C14.2395 18.4756 13.4284 18.4756 13.2901 17.9053L12.9096 16.336C12.8602 16.1324 12.7013 15.9734 12.4976 15.924L10.9284 15.5435C10.3581 15.4052 10.3581 14.5941 10.9284 14.4558L12.4976 14.0753C12.7013 14.0259 12.8602 13.8669 12.9096 13.6633L13.2901 12.0941Z" fill="#050505"/>
<path d="M15.9771 3.09288C16.0678 2.71861 16.6001 2.71861 16.6909 3.09288L16.9406 4.1227C16.973 4.25632 17.0773 4.36065 17.211 4.39306L18.2408 4.64277C18.6151 4.73353 18.6151 5.26582 18.2408 5.35658L17.211 5.60629C17.0773 5.6387 16.973 5.74303 16.9406 5.87665L16.6909 6.90647C16.6001 7.28074 16.0678 7.28074 15.9771 6.90647L15.7274 5.87665C15.695 5.74303 15.5906 5.6387 15.457 5.60629L14.4272 5.35658C14.0529 5.26582 14.0529 4.73353 14.4272 4.64277L15.457 4.39306C15.5906 4.36065 15.695 4.25632 15.7274 4.1227L15.9771 3.09288Z" fill="#050505"/>
<path fill-rule="evenodd" clip-rule="evenodd" d="M16.334 3.27559L16.1302 4.1161C16.0487 4.45208 15.7864 4.71439 15.4504 4.79586L14.6099 4.99967L15.4504 5.20349C15.7864 5.28496 16.0487 5.54728 16.1302 5.88325L16.334 6.72376L16.5378 5.88325C16.6193 5.54727 16.8816 5.28496 17.2176 5.20349L18.0581 4.99967L17.2176 4.79586C16.8816 4.71439 16.6193 4.45207 16.5378 4.1161L16.334 3.27559ZM16.7419 2.82048C16.6382 2.39274 16.0298 2.39274 15.9261 2.82048L15.6407 3.99742C15.6037 4.15013 15.4844 4.26937 15.3317 4.3064L14.1548 4.59179C13.7271 4.69551 13.7271 5.30384 14.1548 5.40756L15.3317 5.69295C15.4844 5.72998 15.6037 5.84922 15.6407 6.00193L15.9261 7.17887C16.0298 7.60661 16.6382 7.60661 16.7419 7.17887L17.0273 6.00193C17.0643 5.84922 17.1835 5.72998 17.3362 5.69295L18.5132 5.40756C18.9409 5.30384 18.9409 4.69551 18.5132 4.59179L17.3362 4.3064C17.1835 4.26937 17.0643 4.15013 17.0273 3.99742L16.7419 2.82048Z" fill="#050505"/>
<path d="M6.33398 19.1663C5.87375 19.1663 5.50065 18.7932 5.50065 18.333C5.50065 17.8728 5.87375 17.4997 6.33398 17.4997C6.79422 17.4997 7.16732 17.8728 7.16732 18.333C7.16732 18.7932 6.79422 19.1663 6.33398 19.1663Z" fill="#050505"/>
<path d="M2.16732 15.833C1.70708 15.833 1.33398 15.4599 1.33398 14.9997C1.33398 14.5394 1.70708 14.1663 2.16732 14.1663C2.62756 14.1663 3.00065 14.5394 3.00065 14.9997C3.00065 15.4599 2.62756 15.833 2.16732 15.833Z" fill="#050505"/>
<path d="M11.334 2.49967C10.8737 2.49967 10.5007 2.12658 10.5007 1.66634C10.5007 1.2061 10.8737 0.833008 11.334 0.833008C11.7942 0.833008 12.1673 1.2061 12.1673 1.66634C12.1673 2.12658 11.7942 2.49967 11.334 2.49967Z" fill="#050505"/>
<path d="M18.834 11.6663C18.3737 11.6663 18.0007 11.2932 18.0007 10.833C18.0007 10.3728 18.3737 9.99967 18.834 9.99967C19.2942 9.99967 19.6673 10.3728 19.6673 10.833C19.6673 11.2932 19.2942 11.6663 18.834 11.6663Z" fill="#050505"/>
</svg>
